<svg width="12" height="11" viewBox="0 0 12 11" fill="none" xmlns="http://www.w3.org/2000/svg">
<path fill-rule="evenodd" clip-rule="evenodd" d="M11.5711 1.38544C11.7067 1.25177 11.7817 1.07274 11.78 0.886913C11.7783 0.701082 11.7001 0.52332 11.5621 0.391913C11.4241 0.260506 11.2374 0.185968 11.0423 0.184353C10.8472 0.182738 10.6592 0.254176 10.5189 0.38328L6.20782 4.48904L1.89677 0.38328C1.75642 0.254176 1.56844 0.182738 1.37331 0.184353C1.17819 0.185968 0.991542 0.260506 0.853565 0.391913C0.715587 0.52332 0.637322 0.701082 0.635627 0.886913C0.633931 1.07274 0.708941 1.25177 0.8445 1.38544L5.15555 5.49121L0.8445 9.59696C0.773423 9.66234 0.716729 9.74055 0.677727 9.82702C0.638726 9.91349 0.618196 10.0065 0.617338 10.1006C0.616479 10.1947 0.635308 10.288 0.672726 10.3751C0.710144 10.4622 0.765402 10.5414 0.835275 10.6079C0.905149 10.6745 0.988238 10.7271 1.0797 10.7627C1.17115 10.7984 1.26915 10.8163 1.36796 10.8155C1.46677 10.8147 1.56442 10.7951 1.65522 10.758C1.74601 10.7208 1.82812 10.6668 1.89677 10.5991L6.20782 6.49337L10.5189 10.5991C10.6592 10.7282 10.8472 10.7997 11.0423 10.7981C11.2374 10.7964 11.4241 10.7219 11.5621 10.5905C11.7001 10.4591 11.7783 10.2813 11.78 10.0955C11.7817 9.90967 11.7067 9.73064 11.5711 9.59696L7.26009 5.49121L11.5711 1.38544Z" fill="#EADDDF" fill-opacity="0.75"/>
</svg>
