<svg width="15" height="15" viewBox="0 0 15 15" fill="none" xmlns="http://www.w3.org/2000/svg">
<g clip-path="url(#clip0_51_460)">
<path d="M3.75 2.8125C3.75 2.31522 3.94754 1.83831 4.29918 1.48668C4.65081 1.13504 5.12772 0.9375 5.625 0.9375L12.1875 0.9375C12.6848 0.9375 13.1617 1.13504 13.5133 1.48668C13.865 1.83831 14.0625 2.31522 14.0625 2.8125L14.0625 9.375C14.0625 9.87228 13.865 10.3492 13.5133 10.7008C13.1617 11.0525 12.6848 11.25 12.1875 11.25V10.3125C12.4361 10.3125 12.6746 10.2137 12.8504 10.0379C13.0262 9.8621 13.125 9.62364 13.125 9.375L13.125 2.8125C13.125 2.56386 13.0262 2.3254 12.8504 2.14959C12.6746 1.97377 12.4361 1.875 12.1875 1.875L5.625 1.875C5.37636 1.875 5.1379 1.97377 4.96209 2.14959C4.78627 2.3254 4.6875 2.56386 4.6875 2.8125H3.75Z" fill="white" fill-opacity="0.5"/>
<path d="M9.375 13.125C9.62364 13.125 9.8621 13.0262 10.0379 12.8504C10.2137 12.6746 10.3125 12.4361 10.3125 12.1875L10.3125 5.625C10.3125 5.37636 10.2137 5.1379 10.0379 4.96209C9.8621 4.78627 9.62364 4.6875 9.375 4.6875L2.8125 4.6875C2.56386 4.6875 2.3254 4.78627 2.14959 4.96209C1.97377 5.1379 1.875 5.37636 1.875 5.625L1.875 12.1875C1.875 12.4361 1.97377 12.6746 2.14959 12.8504C2.3254 13.0262 2.56386 13.125 2.8125 13.125L9.375 13.125ZM9.375 14.0625L2.8125 14.0625C2.31522 14.0625 1.83831 13.865 1.48668 13.5133C1.13504 13.1617 0.9375 12.6848 0.9375 12.1875L0.9375 5.625C0.9375 5.12772 1.13504 4.65081 1.48668 4.29918C1.83831 3.94754 2.31522 3.75 2.8125 3.75L9.375 3.75C9.87228 3.75 10.3492 3.94754 10.7008 4.29918C11.0525 4.65081 11.25 5.12772 11.25 5.625L11.25 12.1875C11.25 12.6848 11.0525 13.1617 10.7008 13.5133C10.3492 13.865 9.87228 14.0625 9.375 14.0625Z" fill="white" fill-opacity="0.5"/>
</g>
<defs>
<clipPath id="clip0_51_460">
<rect width="15" height="15" fill="white" transform="matrix(-1 0 0 -1 15 15)"/>
</clipPath>
</defs>
</svg>
