<svg width="15" height="15" viewBox="0 0 15 15" fill="none" xmlns="http://www.w3.org/2000/svg">
<g clip-path="url(#clip0_250_124)">
<path fill-rule="evenodd" clip-rule="evenodd" d="M7.5 1.71875C4.30711 1.71875 1.71875 4.30711 1.71875 7.5C1.71875 10.6929 4.30711 13.2812 7.5 13.2812C10.6929 13.2812 13.2812 10.6929 13.2812 7.5C13.2812 4.30711 10.6929 1.71875 7.5 1.71875ZM0.78125 7.5C0.78125 3.78934 3.78934 0.78125 7.5 0.78125C11.2107 0.78125 14.2188 3.78934 14.2188 7.5C14.2188 11.2107 11.2107 14.2188 7.5 14.2188C3.78934 14.2188 0.78125 11.2107 0.78125 7.5ZM7.5 4.53125C7.75887 4.53125 7.96875 4.74112 7.96875 5V7.30581L9.39394 8.73106C9.577 8.91412 9.577 9.21088 9.39394 9.39394C9.21088 9.577 8.91412 9.577 8.73106 9.39394L7.16856 7.83144C7.08063 7.74356 7.03125 7.62431 7.03125 7.5V5C7.03125 4.74112 7.24113 4.53125 7.5 4.53125Z" fill="#EADDDF"/>
</g>
<defs>
<clipPath id="clip0_250_124">
<rect width="15" height="15" fill="white"/>
</clipPath>
</defs>
</svg>
